<svg xmlns="http://www.w3.org/2000/svg" viewBox="0 0 1772.11 916.68"><title>OlokooPressWR</title><g id="Layer_2" data-name="Layer 2"><g id="Layer_1-2" data-name="Layer 1"><g id="Layer_2-2" data-name="Layer 2"><g id="Layer_1-2-2" data-name="Layer 1-2"><g style="isolation:isolate"><text transform="translate(2 823.08) scale(0.81 1)" style="isolation:isolate;font-size:328.5313415527344px;font-family:Trebuchet-BoldItalic, Trebuchet MS;font-weight:700;font-style:italic;letter-spacing:-0.04999974081615511em">Ol</text><text transform="translate(2 823.08) scale(0.81 1)" style="isolation:isolate;font-size:328.5313415527344px;fill:none;stroke:#000;stroke-miterlimit:10;stroke-width:4px;font-family:Trebuchet-BoldItalic, Trebuchet MS;font-weight:700;font-style:italic;letter-spacing:-0.04999974081615511em">Ol</text><text transform="translate(247.45 823.08) scale(0.81 1)" style="isolation:isolate;font-size:328.5313415527344px;font-family:Trebuchet-BoldItalic, Trebuchet MS;font-weight:700;font-style:italic;letter-spacing:-0.029998744022194084em">o</text><text transform="translate(247.45 823.08) scale(0.81 1)" style="isolation:isolate;font-size:328.5313415527344px;fill:none;stroke:#000;stroke-miterlimit:10;stroke-width:4px;font-family:Trebuchet-BoldItalic, Trebuchet MS;font-weight:700;font-style:italic;letter-spacing:-0.029998744022194084em">o</text><text transform="translate(391.7 823.08) scale(0.81 1)" style="isolation:isolate;font-size:328.5313415527344px;font-family:Trebuchet-BoldItalic, Trebuchet MS;font-weight:700;font-style:italic;letter-spacing:-0.05000157492865342em">k</text><text transform="translate(391.7 823.08) scale(0.81 1)" style="isolation:isolate;font-size:328.5313415527344px;fill:none;stroke:#000;stroke-miterlimit:10;stroke-width:4px;font-family:Trebuchet-BoldItalic, Trebuchet MS;font-weight:700;font-style:italic;letter-spacing:-0.05000157492865342em">k</text><text transform="translate(522.03 823.08) scale(0.81 1)" style="isolation:isolate;font-size:328.5313415527344px;font-family:Trebuchet-BoldItalic, Trebuchet MS;font-weight:700;font-style:italic;letter-spacing:0.009999581340731364em">o</text><text transform="translate(522.03 823.08) scale(0.81 1)" style="isolation:isolate;font-size:328.5313415527344px;fill:none;stroke:#000;stroke-miterlimit:10;stroke-width:4px;font-family:Trebuchet-BoldItalic, Trebuchet MS;font-weight:700;font-style:italic;letter-spacing:0.009999581340731364em">o</text><text transform="translate(675.07 823.08) scale(0.81 1)" style="isolation:isolate;font-size:328.5313415527344px;font-family:Trebuchet-BoldItalic, Trebuchet MS;font-weight:700;font-style:italic;letter-spacing:-0.05000157492865342em">o</text><text transform="translate(675.07 823.08) scale(0.81 1)" style="isolation:isolate;font-size:328.5313415527344px;fill:none;stroke:#000;stroke-miterlimit:10;stroke-width:4px;font-family:Trebuchet-BoldItalic, Trebuchet MS;font-weight:700;font-style:italic;letter-spacing:-0.05000157492865342em">o</text></g><g style="isolation:isolate"><path d="M849.42,817.56l27-4.81,30.81-177.48-26-4.5,1.73-9.3h69.22c53.3,0,72.68,30.16,67.84,61.62-3.81,28.56-38.42,54.88-86.53,54.88-6.23,0-12.46-.65-19.38-1.29L901,812.42l32.18,5.14-1.73,9.31h-84.1ZM996.51,683.73c4.15-26.64-11.42-49.43-48.11-49.43H931.79l-15.57,89.22a133.72,133.72,0,0,0,15.57,1C966.4,724.49,992.36,710,996.51,683.73Z"/><path d="M1121.8,732.51c-4.5-1-12.81-.64-19.38-.32l-13.85,80.23,36,5.14-1.73,9.31h-87.91l2.07-9.31,27-4.81,30.8-177.48-26-4.5,1.73-9.3h71.29c53,0,74.07,25.67,69.22,57.12-4.15,25.36-31.15,44-68.18,47.5,67.14,13.48,36.34,92.43,75.45,92.43,2.42,0,3.46-.64,6.23-1l-2.08,7.38c-4.15,2.25-11.76,3.53-19,3.53C1151.22,828.47,1182,741.18,1121.8,732.51Zm-18.34-7.06h0Zm83.75-47.5c5.19-27.6-17.3-43.65-48.45-43.65h-19.38l-14.54,82.81a102.38,102.38,0,0,0,19,1.6C1154.68,718.71,1182.37,703.63,1187.21,678Z"/><path d="M1248.12,817.56l27-4.81,30.8-177.48-26-4.5,1.73-9.3h143.64l-10.73,59.37h-12.12l-7.61-46.54h-64.38l-14.18,80.88,67.83-1L1381.72,729l-67.15-1.93-15.22,87h68.87l22.5-49.11h12.11l-10.38,62h-146.4Z"/><path d="M1464.09,820.77l-14.54,9.31h-8.31l6.93-39.8V790l4.5-25.68h12.11l5.54,45.26c7.61,3.85,18,6.09,32.53,6.09,27,0,48.45-13.8,52.26-35.3,4.85-27.6-21.8-38.83-47.07-52.63-22.84-12.52-44.3-27.6-40.15-61.62,3.12-26,32.19-49.75,74.07-49.75,12.46,0,24.57,3.21,33.57,9.31l14.54-9.31h8.3l-10.73,62.58h-12.11l-5.88-43c-7.62-4.17-17-6.1-28-6.1-23.53,0-47.07,10.91-50.53,34.34-3.46,24.39,15.23,36.27,36.34,47.18,26,13.48,55.73,25.67,51.23,63.54-4.16,33.38-35.65,55.21-82,55.21C1484.16,830.08,1472.74,826.54,1464.09,820.77Z"/><path d="M1637.82,820.77l-14.53,9.31H1615l6.92-39.8V790l4.5-25.68h12.12l5.53,45.26c7.62,3.85,18,6.09,32.54,6.09,27,0,48.45-13.8,52.26-35.3,4.84-27.6-21.81-38.83-47.07-52.63-22.84-12.52-44.3-27.6-40.15-61.62,3.12-26,32.19-49.75,74.07-49.75,12.46,0,24.57,3.21,33.57,9.31l14.54-9.31h8.3l-10.73,62.58h-12.11l-5.88-43c-7.62-4.17-17-6.1-28-6.1-23.53,0-47.07,10.91-50.53,34.34-3.46,24.39,15.23,36.27,36.34,47.18,26,13.48,55.72,25.67,51.22,63.54-4.15,33.38-35.64,55.21-82,55.21C1657.9,830.08,1646.48,826.54,1637.82,820.77Z"/></g></g></g><path d="M1099.4,290.14A209.52,209.52,0,0,1,920.48,469.79v48.37c120-13.33,215.42-108.23,229.52-228Z" style="fill:#99cc03"/><path d="M920.48.6V54.87a209.5,209.5,0,0,1,179.34,183h51.1C1140.78,113.76,1043.58,14.27,920.48.6Z" style="fill:#a6c"/><path d="M633.57,237.89h51.95A209.47,209.47,0,0,1,869.91,54.24V0C744,11.11,643.87,111.78,633.57,237.89Z" style="fill:#32b5e5"/><path d="M685.09,290.14H633.65C648,411.88,746.29,507.93,869.07,518.76V470.43A209.53,209.53,0,0,1,685.09,290.14Z" style="fill:#ffbb32"/><path d="M758.68,295.76q0-65.94,29.2-112.75t76-46.8q36,0,55.37,23.53t19.42,68q0,73-29.81,118.57T827.19,391.9q-31.73,0-50.12-26.4T758.68,295.76Zm36.92-4.55q0,28.5,9.16,45.37t26.8,16.87q32.54,0,51.41-36.1t18.87-86.18q0-56.67-40.47-56.67-28.44,0-47.11,37.1A174.74,174.74,0,0,0,795.6,291.21Z" style="fill:#f44;stroke:#f44;stroke-miterlimit:10;stroke-width:11px"/><path d="M1000,373.51q-8.07,15.87-24.47,15.86a22.59,22.59,0,0,1-19.42-9.95Q949,369.48,949,353.61q0-20.57,6.57-59.2L983,133h33.91L988.77,301.16q-6,35.93-6,51.27,0,9.79,4.92,15.44A15.65,15.65,0,0,0,1000,373.51Z" style="fill:#f44;stroke:#f44;stroke-miterlimit:10;stroke-width:11px"/></g></g></svg>