<svg xmlns="http://www.w3.org/2000/svg" viewBox="0 0 613.92 615.6"><title>OlokooPressLoginIcon</title><g id="Layer_2" data-name="Layer 2"><g id="Layer_2-2" data-name="Layer 2"><path d="M552.78,344.3C538.12,454.81,450.83,542.39,340.46,557.49v57.4C482.89,599.07,596.1,486.45,612.83,344.3Z" style="fill:#99cc03"/><path d="M340.46.71v64.4c111.7,15.28,199.76,104.8,212.82,217.19h60.64C601.89,135,486.54,16.93,340.46.71Z" style="fill:#a6c"/><path d="M0,282.3H61.64C74.93,167.9,165.92,77.21,280.46,64.36V0C131.08,13.18,12.22,132.65,0,282.3Z" style="fill:#32b5e5"/><path d="M61.14,344.3H.09c17,144.47,133.67,258.44,279.37,271.3V558.24C166.26,545.54,76.06,456.81,61.14,344.3Z" style="fill:#ffbb32"/><path d="M158,349.79q0-78.26,34.64-133.8t90.13-55.54q42.67,0,65.71,27.92t23,80.76q0,86.65-35.37,140.7t-96.86,54q-37.65,0-59.47-31.32T158,349.79Zm43.81-5.41q0,33.83,10.87,53.84t31.8,20q38.61,0,61-42.84t22.39-102.27q0-67.24-48-67.25-33.75,0-55.9,44A207.41,207.41,0,0,0,201.77,344.38Z" style="fill:#f44"/><path d="M436,442.05q-9.58,18.82-29.05,18.82-14.59,0-23-11.81t-8.43-30.62q0-24.42,7.78-70.25l32.62-191.54h40.23L422.69,356.19q-7.14,42.63-7.14,60.85,0,11.59,5.84,18.31A18.57,18.57,0,0,0,436,442.05Z" style="fill:#f44"/></g></g></svg>