<svg xmlns="http://www.w3.org/2000/svg" viewBox="0 0 1182.39 334.64"><title>olokoo-logo-dot2</title><g id="Layer_2" data-name="Layer 2"><g id="Layer_1-2" data-name="Layer 1"><g id="Layer_2-2" data-name="Layer 2"><g id="Layer_2-2-2" data-name="Layer 2-2"><path d="M2,209.79Q2,125.6,39.27,65.84t97-59.75q45.9,0,70.7,30T231.72,123q0,93.24-38.05,151.38T89.46,332.53q-40.5,0-64-33.7T2,209.79ZM49.13,204q0,36.39,11.7,57.92T95,283.43q41.55,0,65.64-46.08t24.09-110Q184.77,55,133.1,55,96.79,55,73,102.34A223,223,0,0,0,49.13,204Z" style="stroke:#000;stroke-miterlimit:10;stroke-width:4px"/><path d="M301.13,309.06q-10.31,20.24-31.25,20.24-15.7,0-24.79-12.71T236,283.65q0-26.26,8.38-75.58L279.48,2h43.29l-36,214.68q-7.68,45.87-7.68,65.46,0,12.5,6.29,19.7A20,20,0,0,0,301.13,309.06Z" style="stroke:#000;stroke-miterlimit:10;stroke-width:4px"/><path d="M326.89,240.8q0-62.45,30.9-105.51T436,92.22q36.13,0,55.69,23.15t19.55,65.78q0,63.75-30.55,107t-78.9,43.28q-35.44,0-55.16-23.36T326.89,240.8Zm45.39-2.59q0,49.32,34.39,49.31,27.22,0,43.12-31.11t15.88-73.75q0-46.51-34.39-46.51-26.7,0-42.85,30.68t-16.15,71.38Z" style="stroke:#000;stroke-miterlimit:10;stroke-width:4px"/><path d="M641.22,327.14l-59.18-95-7.33,7.54L562.32,327.1H518.5L564.24,2h42.94L584.66,173.19l33-35.32q33.69-36.18,44.69-55.12l30.55,32.51q-7.68,11.63-77.16,87.21L692.9,327.14Z" style="stroke:#000;stroke-miterlimit:10;stroke-width:4px"/><path d="M695.61,240.8q0-62.45,30.9-105.51t78.2-43.07q36.13,0,55.69,23.15T880,181.15q0,63.75-30.55,107t-78.9,43.28q-35.44,0-55.16-23.36T695.61,240.8ZM741,238.21q0,49.32,34.39,49.31,27.23,0,43.11-31.11t15.89-73.75q0-46.51-34.39-46.51-26.71,0-42.86,30.68T741,238.21Z" style="stroke:#000;stroke-miterlimit:10;stroke-width:4px"/><path d="M901.11,240.8q0-62.45,30.9-105.51t78.2-43.07q36.13,0,55.69,23.15t19.55,65.78q0,63.75-30.55,107T976,331.45q-35.44,0-55.16-23.36T901.11,240.8Zm45.39-2.59q0,49.32,34.39,49.31,27.23,0,43.11-31.11t15.89-73.75q0-46.51-34.39-46.51-26.71,0-42.85,30.68T946.5,238.21Z" style="stroke:#000;stroke-miterlimit:10;stroke-width:4px"/><ellipse cx="1142.74" cy="288.52" rx="45" ry="36.58" transform="translate(483.43 1265.46) rotate(-70.16)" style="fill:#f44;stroke:#f44;stroke-miterlimit:10;stroke-width:4px"/></g></g></g></g></svg>